<svg xmlns="http://www.w3.org/2000/svg" xmlns:xlink="http://www.w3.org/1999/xlink" width="246" height="200" viewBox="0 0 246 200">
    <defs>
        <path id="a" d="M.27.166h183.728v42.92H.27z"/>
    </defs>
    <g fill="none" fill-rule="evenodd">
        <path fill="#1D1D1B" d="M60.475 116.31h23.133V.643H60.475zM187.71 58.477c0-31.941-25.894-57.834-57.835-57.834H95.176V116.31h34.699c31.941 0 57.834-25.893 57.834-57.833m-23.133 0c0 19.164-15.536 34.7-34.7 34.7h-11.567v-69.4h11.566c19.165 0 34.7 15.536 34.7 34.7"/>
        <path fill="#95D600" d="M83.609 35.343V81.61l23.134-23.133z"/>
        <path fill="#1D1D1B" d="M0 141.224l1.478 30.77 163.38-7.848-1.478-30.77z"/>
        <path fill="#FEFEFE" d="M8.658 148.833l4.141-.2.583 12.126 7.072-.34.17 3.548-11.213.539z"/>
        <g>
            <path fill="#FEFEFE" d="M21.222 152.297c-.935-.134-1.766-.81-1.822-1.985-.063-1.3.92-2.296 2.258-2.36 1.286-.062 2.408.755 2.487 2.388.043.92-.35 1.834-.852 2.676l-1.262 2.16-2.546.12 1.737-2.999zM30.344 163.5l-4.038.195-.552-11.488 4.038-.193.552 11.486zm-2.605-12.36c-1.235.06-2.33-.733-2.392-2.034-.064-1.328.95-2.22 2.185-2.28 1.234-.06 2.33.732 2.393 2.06.062 1.301-.951 2.195-2.186 2.254zM31.977 151.909l4.037-.194.049.996c.608-.746 1.714-1.337 3.052-1.401 2.571-.124 4.169 1.463 4.291 4.015l.362 7.53-4.013.193-.315-6.56c-.045-.944-.566-1.61-1.595-1.56-.798.037-1.444.53-1.612 1.331l.333 6.943-4.037.193-.552-11.486zM52.594 149.153c-.29-.14-.602-.2-.962-.183-.9.042-1.418.528-1.374 1.446l.029.613 2.238-.107.15 3.114-2.238.108.402 8.372-3.987.192-.402-8.373-1.723.083-.15-3.115 1.723-.082-.04-.843c-.133-2.756 1.456-4.573 4.285-4.71.772-.037 1.395.062 1.892.217l.157 3.268zM59.382 153.637c-1.234.06-1.875 1.216-1.8 2.799.076 1.582.824 2.646 2.058 2.587 1.26-.061 1.903-1.192 1.827-2.774-.076-1.583-.825-2.673-2.085-2.612m.418 8.704c-3.498.17-6.033-2.166-6.204-5.714-.17-3.548 2.13-6.115 5.628-6.283 3.523-.17 6.033 2.166 6.203 5.715.17 3.548-2.104 6.113-5.627 6.282M79.47 153.849c-.338-.599-1.055-1.024-1.826-.986-1.389.066-2.158 1.228-2.086 2.709.07 1.48.947 2.539 2.335 2.472.798-.038 1.446-.505 1.724-1.157l-.146-3.038zm.306 6.356c-.511.638-1.615 1.254-2.799 1.312-3.343.16-5.298-2.432-5.457-5.751-.16-3.318 1.538-6.086 4.881-6.247 1.183-.057 2.342.45 2.912 1.038l-.29-6.025 4.038-.193.797 16.591-4.038.194-.044-.92zM97.152 160.291l-4.037.195-.048-.997c-.583.746-1.715 1.337-3.026 1.4-2.547.123-4.144-1.464-4.267-4.016l-.361-7.53 4.012-.194.317 6.586c.046.97.542 1.637 1.57 1.588a1.693 1.693 0 0 0 1.586-1.356l-.335-6.969 4.038-.193.551 11.486zM106.71 152.13c-.502-.23-1.046-.307-1.69-.276-1.106.053-1.828.575-1.995 1.4l.324 6.74-4.038.194-.552-11.487 4.038-.195.05 1.022c.528-.793 1.404-1.347 2.561-1.403.515-.025.93.058 1.116.152l.185 3.854zM114.657 155.562c-.28-.472-.989-.746-1.735-.71-.797.038-1.579.408-1.542 1.174.038.792.851 1.085 1.649 1.047.746-.036 1.425-.375 1.66-.847l-.032-.664zm.187 3.88l-.028-.587c-.368.401-1.506.865-2.74.924-2.289.11-4.28-1.074-4.396-3.499-.106-2.22 1.754-3.743 4.274-3.864.952-.045 2.098.207 2.577.516l-.035-.74c-.036-.74-.504-1.358-1.481-1.31-.746.035-1.168.388-1.323.907l-3.806.183c.227-2.237 2.123-4.093 5.107-4.237 3.292-.157 5.253 1.488 5.396 4.475l.339 7.045-3.884.186zM124.54 154.73c.339.622 1.03 1.024 1.827.985 1.388-.066 2.158-1.203 2.087-2.684-.07-1.48-.948-2.564-2.337-2.497-.77.037-1.443.53-1.723 1.156l.146 3.04zm.204 4.236l-4.038.194-.797-16.592 4.037-.194.29 6.024c.51-.639 1.616-1.254 2.799-1.311 3.343-.161 5.298 2.432 5.457 5.75.16 3.318-1.537 6.086-4.881 6.247-1.183.057-2.342-.45-2.911-1.037l.044.92zM138.347 158.312l-4.038.195-.797-16.592 4.038-.195zM143.54 151.078l3.498-.167c-.097-.943-.722-1.629-1.725-1.58-.952.046-1.567.663-1.773 1.747zm7.499 2.608c-.284 2.675-2.213 4.379-5.222 4.524-3.55.17-6.007-2.143-6.178-5.716-.17-3.548 2.18-6.118 5.524-6.279 3.55-.17 5.669 2.083 5.833 5.503l.047.996-7.484.36c.195 1.372.951 2.077 2.109 2.022.822-.04 1.448-.428 1.64-1.231l3.73-.179zM154.377 152.937c1.338-.064 2.442.906 2.507 2.26a2.37 2.37 0 0 1-2.277 2.514c-1.312.063-2.416-.933-2.482-2.286a2.344 2.344 0 0 1 2.252-2.488"/>
            <g transform="translate(61.093 156.892)">
                <mask id="b" fill="#fff">
                    <use xlink:href="#a"/>
                </mask>
                <path fill="#95D600" d="M182.066 18.972c-1.082 3.363-.435 3.898-2.11 7.297-1.015 1.057.875 3.847-.404 5.187-3.014.754-12.292 1.696-15.903 2.193-9.9 1.362-19.779 1.078-30.573 2.182l-11.848.687c-5.455.172-11.599.854-16.926.93l-23.241 1.21-8.197.537c-7.12.121-14.46.92-21.15.761l-9.791.508c-9.753-.034-18.055 1.547-28.302 1.765-2.107.044-4.184.366-5.613.546l-4.142.137-3.347.175c.378-1.03.028-4.414-.249-4.98.087-.184.928-.776 1.015-.96-.379-1.321-.827-2.336-.811-4.182.018-2.133 1.24-6.24 2.353-8.903.415-.99-1.597-2.075-.3-3.096.52-1.003.124-2.5.65-3.433 1.732-1.92-.222-6.308 1.441-6.562l37.07-1.983c3.13-.454 7.429-.364 10.903-.535 8.624-.425 17.656-.547 26.565-1.205 8.17-.604 17.914-1.07 26.507-1.246 7.613-.156 16.597-1.361 24.627-1.435 3.726-.26 7.455-.518 11.182-.777 1.733-.17 4.532-.106 6.097-.49 1.32-.056 2.642-.112 3.962-.17l16.075-1.454c2.538-.251 14.549-1.888 15.759-1.43 1.815.564-.833 8.155-.968 12.192 1.237.29-.963 4.37-.331 6.534" mask="url(#b)"/>
            </g>
            <path fill="#FEFEFE" d="M98.435 173.429l13.885-.728-.458 3.555-4.86.254-1.523 12.262-4.14.217 1.523-12.261-4.86.254zM118.632 181.48c-.057-1.072-.64-1.834-1.642-1.781-1.388.072-2.258 1.679-2.153 3.67.054 1.045.636 1.808 1.613 1.757 1.414-.074 2.286-1.655 2.182-3.645m-7.784 2.046c-.21-4.008 2.524-6.94 6.073-7.126 3.214-.169 5.505 1.733 5.673 4.923.21 4.007-2.499 6.939-6.073 7.126-3.214.168-5.506-1.733-5.673-4.923M134.53 187.25l-4.036.211.128-1.004c-.685.726-1.76 1.346-3.15 1.419-2.185.114-3.54-1.146-3.647-3.188a6.009 6.009 0 0 1 .028-.948l.922-7.495 4.036-.212-.787 6.619c-.042.18-.058.36-.047.565.036.69.395 1.157 1.27 1.11.796-.04 1.514-.616 1.808-1.4l.868-7.057 4.038-.21-1.43 11.59zM140.23 183.368c.113.685.747.984 1.467.947.72-.038 1.247-.32 1.219-.857-.02-.383-.234-.526-.938-.667l-1.878-.414c-1.72-.345-2.775-1.288-2.859-2.895-.14-2.68 2.277-4.265 4.978-4.407 3.394-.178 4.969 1.352 5.186 3.515l-3.677.193c-.082-.584-.617-.94-1.363-.9-.668.034-1.168.341-1.14.852.017.332.256.473.648.58l2.193.5c1.879.438 2.787 1.517 2.863 2.971.147 2.807-2.334 4.192-5.11 4.338-3.24.17-5.146-1.266-5.37-3.558l3.78-.198zM154.685 179.77l3.29-.173-1.027-4.372-2.263 4.545zm4.992-9.551l3.88 15.51-4.089.214-.724-3.008-5.76.302-1.538 3.126-4.114.216 8.127-16.138 4.218-.222zM175.494 180.829c-.497 2.816-2.335 4.652-5.497 4.818-3.318.174-5.387-1.919-5.542-4.88-.193-3.674 2.161-6.971 6.044-7.174 3.291-.173 5.085 1.575 5.276 4.252l-3.908.206c-.061-.688-.474-1.178-1.297-1.136-1.595.084-2.216 2.01-2.135 3.541.063 1.2.666 1.885 1.618 1.835.874-.046 1.337-.556 1.558-1.26l3.883-.202zM178.362 176.559l-1.697.09.402-3.145 1.698-.089.425-3.195 3.96-.208-.425 3.196 2.416-.127-.376 3.143-2.443.127-.525 3.764c-.016.18-.035.309-.027.462.034.638.46.897 1.128.862a3.781 3.781 0 0 0 1.324-.325l-.414 3.425c-.503.231-1.395.431-2.27.477-2.365.125-3.727-.777-3.837-2.87a6.008 6.008 0 0 1 .044-1.128l.617-4.46zM189.8 177.366l3.496-.183c-.002-.05.017-.18.012-.282-.043-.816-.612-1.35-1.46-1.306-1.08.058-1.712.833-2.049 1.771zm7.071 2.6c-.605 2.692-2.553 4.407-5.587 4.566-3.292.172-5.432-1.79-5.597-4.928-.184-3.522 2.089-6.917 6.15-7.129 3.086-.162 5.08 1.473 5.24 4.536.032.587-.01 1.28-.128 1.977l-7.43.39.004.102c.069 1.302.697 1.984 1.854 1.924.798-.042 1.395-.458 1.689-1.24l3.805-.199zM209.011 183.346l-4.037.211.128-1.004c-.685.726-1.76 1.346-3.149 1.42-2.186.114-3.54-1.146-3.647-3.188a6.017 6.017 0 0 1 .027-.949l.922-7.494 4.037-.212-.788 6.619c-.042.18-.058.36-.047.565.036.69.395 1.156 1.27 1.11.797-.042 1.515-.617 1.809-1.4l.867-7.057 4.038-.212-1.43 11.591zM219.894 175.073c-.45-.232-.97-.307-1.613-.274-1.08.057-1.929.588-2.22 1.422l-.83 6.799-4.036.212 1.429-11.591 4.037-.212-.127 1.03c.576-.823 1.605-1.363 2.71-1.42.566-.03.984.05 1.143.143l-.493 3.89zM224.17 178.97c.114.684.749.983 1.468.946.72-.038 1.247-.321 1.22-.857-.021-.383-.235-.526-.938-.667l-1.878-.414c-1.72-.345-2.776-1.288-2.86-2.896-.14-2.68 2.279-4.265 4.978-4.406 3.394-.178 4.97 1.352 5.187 3.515l-3.678.193c-.082-.585-.617-.94-1.362-.9-.669.034-1.168.341-1.14.852.016.332.255.472.649.58l2.191.5c1.88.438 2.787 1.516 2.863 2.971.147 2.807-2.333 4.192-5.109 4.338-3.24.17-5.147-1.266-5.37-3.558l3.78-.198zM71.742 180.492c.54-.055 2.767-.233 3.464-.255-.238.819-.5 2.052-.704 2.84-2.06.065-5.328.228-6.154.279-.444.025-.664.528-.47 1.006.389.923 1.13 1.148 1.052 1.43-.08.28.384.577.766.699.586.187 1.292.213 1.997.28.22.005 1.742-.174 2.028-.202-.134.663-.833 3.521-.896 4.058-.055.41.202.695.255 1.048.207 1.39 1.41 1.842 1.685 1.846.122.002.677-.212.767-.653.346-1.609 1.308-4.534 1.822-6.266 1.112-.078 3.435-.083 4.005-.106-.207.85-.547 2.105-.647 2.736-.091.474-.987 3.731-.782 4.019.264.36.13.877.3 1.286.155.371.437.608.574.643.085.022.447 1.392.894 1.097.29-.19 1.224-2.042 1.344-2.482.413-1.64 1.348-5.845 1.894-7.61a.684.684 0 0 1 .43-.341c2.64-.247 4.561-.38 6.218-.578.732-.084.739-.748.482-1.226-.94-1.754-.858-1.646-1.532-2.005-.185-.097-2.499.263-4.341.394.236-.788.679-2.427.943-3.15 1.94-.194 3.92-.212 5.256-.351.732-.084.704-.685.578-1.225-.449-2.064-.863-1.644-1.539-2.001-.122-.065-1.46-.046-2.63-.001-.007 0-.015-.005-.022-.002-.575.236-.25-.368-.244-.517a.07.07 0 0 1 .005-.026c.386-1.222.82-2.553.994-3.338.124-.504-.1-1.013-.594-1.21-.772-.329-.828-1.148-1.903-1.164-.505-.007-1.036.756-1.084 1.04-.17.725-.378 2.567-1.453 5.53l-2.44.129-1.528.167c.544-1.732 1.069-3.476 1.317-4.485.125-.505-.099-1.014-.593-1.21-.772-.329-.704-1.18-1.78-1.196-.504-.007-1.064.364-1.113.648-.184.978-1.078 3.666-1.973 6.532-2.57.12-6.346.38-7.24.453-1.198.099-.502.467-.47 1.005.072.92.624.85.86 1.137.618.8 1.038 1.186 2.202 1.298zm7.542-.513l1.4-.138 2.409.058c-.238.82-.53 2.02-.736 2.84-.924.113-2.862.125-3.909.174l.836-2.934z"/>
        </g>
    </g>
</svg>
